<mxfile host="app.diagrams.net" modified="2023-11-07T18:39:12.312Z" agent="Mozilla/5.0 (Windows NT 10.0; Win64; x64) AppleWebKit/537.36 (KHTML, like Gecko) Chrome/119.0.0.0 Safari/537.36" etag="-k_hP7h86WUSlB-ApLSR" version="22.0.8" type="device">
  <diagram name="Page-1" id="VfT2Odsl5by29AQGQs_Q">
    <mxGraphModel dx="931" dy="446" grid="1" gridSize="10" guides="1" tooltips="1" connect="1" arrows="1" fold="1" page="1" pageScale="1" pageWidth="827" pageHeight="1169" math="0" shadow="0">
      <root>
        <mxCell id="0" />
        <mxCell id="1" parent="0" />
        <mxCell id="IA0beaa82Srik-d_A_uO-1" value="" style="rounded=0;whiteSpace=wrap;html=1;fillColor=none;" parent="1" vertex="1">
          <mxGeometry x="40" y="40" width="200" height="310" as="geometry" />
        </mxCell>
        <mxCell id="IA0beaa82Srik-d_A_uO-2" value="Add arrow" style="text;html=1;strokeColor=none;fillColor=none;align=left;verticalAlign=middle;whiteSpace=wrap;rounded=0;fontColor=#000000;fontStyle=1;fontSize=14;" parent="1" vertex="1">
          <mxGeometry x="50" y="50" width="160" height="20" as="geometry" />
        </mxCell>
        <mxCell id="IA0beaa82Srik-d_A_uO-3" value="" style="endArrow=none;html=1;rounded=0;strokeWidth=1;" parent="1" edge="1">
          <mxGeometry width="50" height="50" relative="1" as="geometry">
            <mxPoint x="210" y="70" as="sourcePoint" />
            <mxPoint x="230" y="50" as="targetPoint" />
          </mxGeometry>
        </mxCell>
        <mxCell id="IA0beaa82Srik-d_A_uO-4" value="" style="endArrow=none;html=1;rounded=0;strokeWidth=1;" parent="1" edge="1">
          <mxGeometry width="50" height="50" relative="1" as="geometry">
            <mxPoint x="230" y="70" as="sourcePoint" />
            <mxPoint x="210" y="50" as="targetPoint" />
          </mxGeometry>
        </mxCell>
        <mxCell id="IA0beaa82Srik-d_A_uO-5" value="Discard" style="rounded=1;whiteSpace=wrap;html=1;fontColor=#000000;fontStyle=0;fillColor=#E6E6E6;" parent="1" vertex="1">
          <mxGeometry x="50" y="320" width="60" height="20" as="geometry" />
        </mxCell>
        <mxCell id="IA0beaa82Srik-d_A_uO-6" value="Confirm" style="rounded=1;whiteSpace=wrap;html=1;fontColor=#000000;fontStyle=0;fillColor=#E6E6E6;" parent="1" vertex="1">
          <mxGeometry x="170" y="320" width="60" height="20" as="geometry" />
        </mxCell>
        <mxCell id="IA0beaa82Srik-d_A_uO-7" value="" style="rounded=0;whiteSpace=wrap;html=1;fillColor=none;" parent="1" vertex="1">
          <mxGeometry x="50" y="80" width="180" height="180" as="geometry" />
        </mxCell>
        <mxCell id="IA0beaa82Srik-d_A_uO-8" value="castle" style="rounded=1;whiteSpace=wrap;html=1;fillColor=none;align=left;spacingLeft=2;" parent="1" vertex="1">
          <mxGeometry x="50" y="280" width="70" height="20" as="geometry" />
        </mxCell>
        <mxCell id="IA0beaa82Srik-d_A_uO-9" value="" style="html=1;verticalLabelPosition=bottom;labelBackgroundColor=#ffffff;verticalAlign=top;shadow=0;dashed=0;strokeWidth=2;shape=mxgraph.ios7.misc.down;strokeColor=#000000;" parent="1" vertex="1">
          <mxGeometry x="104" y="287" width="12" height="6" as="geometry" />
        </mxCell>
        <mxCell id="IA0beaa82Srik-d_A_uO-10" value="museum" style="rounded=1;whiteSpace=wrap;html=1;fillColor=none;align=left;spacingLeft=2;" parent="1" vertex="1">
          <mxGeometry x="160" y="280" width="70" height="20" as="geometry" />
        </mxCell>
        <mxCell id="IA0beaa82Srik-d_A_uO-11" value="" style="html=1;verticalLabelPosition=bottom;labelBackgroundColor=#ffffff;verticalAlign=top;shadow=0;dashed=0;strokeWidth=2;shape=mxgraph.ios7.misc.down;strokeColor=#000000;" parent="1" vertex="1">
          <mxGeometry x="214" y="288" width="12" height="6" as="geometry" />
        </mxCell>
        <mxCell id="IA0beaa82Srik-d_A_uO-12" value="" style="ellipse;whiteSpace=wrap;html=1;aspect=fixed;fillColor=#B3B3B3;" parent="1" vertex="1">
          <mxGeometry x="70" y="200" width="20" height="20" as="geometry" />
        </mxCell>
        <mxCell id="IA0beaa82Srik-d_A_uO-13" value="" style="ellipse;whiteSpace=wrap;html=1;aspect=fixed;fillColor=#B3B3B3;" parent="1" vertex="1">
          <mxGeometry x="190" y="160" width="20" height="20" as="geometry" />
        </mxCell>
        <mxCell id="IA0beaa82Srik-d_A_uO-14" value="" style="ellipse;whiteSpace=wrap;html=1;aspect=fixed;fillColor=#B3B3B3;" parent="1" vertex="1">
          <mxGeometry x="110" y="120" width="20" height="20" as="geometry" />
        </mxCell>
        <mxCell id="IA0beaa82Srik-d_A_uO-15" value="statue" style="text;html=1;strokeColor=none;fillColor=none;align=center;verticalAlign=middle;whiteSpace=wrap;rounded=0;" parent="1" vertex="1">
          <mxGeometry x="90" y="100" width="60" height="20" as="geometry" />
        </mxCell>
        <mxCell id="IA0beaa82Srik-d_A_uO-16" value="" style="endArrow=classicThin;html=1;rounded=0;endFill=1;dashed=1;" parent="1" source="IA0beaa82Srik-d_A_uO-12" target="IA0beaa82Srik-d_A_uO-13" edge="1">
          <mxGeometry width="50" height="50" relative="1" as="geometry">
            <mxPoint x="110" y="220" as="sourcePoint" />
            <mxPoint x="160" y="170" as="targetPoint" />
          </mxGeometry>
        </mxCell>
        <mxCell id="IA0beaa82Srik-d_A_uO-17" value="castle" style="text;html=1;strokeColor=none;fillColor=none;align=center;verticalAlign=middle;whiteSpace=wrap;rounded=0;" parent="1" vertex="1">
          <mxGeometry x="50" y="220" width="60" height="20" as="geometry" />
        </mxCell>
        <mxCell id="IA0beaa82Srik-d_A_uO-18" value="museum" style="text;html=1;strokeColor=none;fillColor=none;align=center;verticalAlign=middle;whiteSpace=wrap;rounded=0;" parent="1" vertex="1">
          <mxGeometry x="170" y="140" width="60" height="20" as="geometry" />
        </mxCell>
        <mxCell id="IA0beaa82Srik-d_A_uO-19" value="" style="endArrow=classic;html=1;rounded=0;" parent="1" edge="1">
          <mxGeometry width="50" height="50" relative="1" as="geometry">
            <mxPoint x="130" y="289.8299999999999" as="sourcePoint" />
            <mxPoint x="150" y="289.8299999999999" as="targetPoint" />
          </mxGeometry>
        </mxCell>
        <mxCell id="IA0beaa82Srik-d_A_uO-20" value="" style="endArrow=classicThin;html=1;rounded=0;endFill=1;" parent="1" source="IA0beaa82Srik-d_A_uO-12" target="IA0beaa82Srik-d_A_uO-14" edge="1">
          <mxGeometry width="50" height="50" relative="1" as="geometry">
            <mxPoint x="99" y="217" as="sourcePoint" />
            <mxPoint x="201" y="183" as="targetPoint" />
          </mxGeometry>
        </mxCell>
      </root>
    </mxGraphModel>
  </diagram>
</mxfile>
